<?xml version="1.0" standalone="no"?>
<!DOCTYPE svg PUBLIC "-//W3C//DTD SVG 20010904//EN"
 "http://www.w3.org/TR/2001/REC-SVG-20010904/DTD/svg10.dtd">
<svg version="1.0" xmlns="http://www.w3.org/2000/svg"
 width="2339.000000pt" height="630.000000pt" viewBox="0 0 2339.000000 630.000000"
 preserveAspectRatio="xMidYMid meet">

<g transform="translate(0.000000,630.000000) scale(0.100000,-0.100000)"
fill="#000000" stroke="none">
<path d="M3955 5777 c-242 -122 -446 -226 -452 -230 -10 -6 -2 -29 27 -88 22
-43 43 -79 47 -79 4 0 217 88 474 197 l466 196 -52 111 c-29 60 -56 111 -61
113 -5 1 -207 -98 -449 -220z"/>
<path d="M2540 3615 l0 -1485 1255 0 1256 0 -3 123 -3 122 -1108 3 -1107 2 2
598 3 597 1033 3 1032 2 0 120 0 120 -1032 2 -1033 3 -3 513 -2 512 1095 0
1095 0 0 125 0 125 -1240 0 -1240 0 0 -1485z"/>
<path d="M6750 3615 l0 -1485 1220 0 1220 0 0 125 0 125 -1080 0 -1080 0 0
1360 0 1360 -140 0 -140 0 0 -1485z"/>
<path d="M10720 3615 l0 -1485 140 0 140 0 0 1485 0 1485 -140 0 -140 0 0
-1485z"/>
<path d="M12870 3614 l0 -1485 923 4 c988 4 1000 4 1241 58 450 100 765 328
926 672 110 235 159 510 147 837 -16 424 -125 721 -353 960 -206 215 -468 338
-854 399 -220 36 -383 41 -1217 41 l-813 0 0 -1486z m1936 1213 c584 -87 892
-356 995 -867 26 -125 36 -408 20 -555 -56 -519 -324 -841 -800 -960 -232 -58
-242 -58 -1088 -62 l-783 -4 0 1236 0 1236 773 -4 c653 -3 789 -6 883 -20z"/>
<path d="M18166 3670 c-411 -786 -761 -1455 -778 -1485 l-30 -55 150 0 149 0
203 390 203 390 1010 -2 1010 -3 201 -385 201 -385 149 -3 c117 -2 147 0 143
10 -3 7 -352 675 -775 1483 l-769 1470 -160 3 -159 2 -748 -1430z m1354 310
l426 -815 -870 -3 c-478 -1 -871 -1 -873 1 -2 3 839 1620 864 1661 8 11 -28
78 453 -844z"/>
<path d="M2862 1099 c-156 -27 -239 -112 -218 -222 8 -42 66 -99 128 -127 26
-11 124 -40 217 -65 242 -63 311 -103 311 -183 0 -48 -59 -104 -126 -122 -134
-35 -365 -19 -479 34 l-55 25 0 -43 0 -43 58 -16 c101 -28 173 -37 286 -37
133 0 235 20 295 57 63 40 84 72 89 140 3 49 0 64 -20 93 -46 69 -105 93 -438
185 -151 41 -214 97 -190 170 19 59 92 90 235 101 92 7 235 -14 309 -46 l47
-20 -3 43 -3 42 -80 18 c-95 21 -289 30 -363 16z"/>
<path d="M4833 1099 c-265 -44 -408 -250 -349 -500 45 -193 217 -299 486 -299
228 0 388 81 459 230 23 50 26 67 26 175 0 111 -2 124 -28 176 -34 69 -109
142 -183 176 -100 46 -279 64 -411 42z m300 -74 c114 -30 184 -82 228 -171 20
-42 24 -64 24 -150 0 -92 -3 -105 -30 -159 -62 -122 -185 -179 -385 -179 -188
0 -303 48 -376 156 -59 88 -65 237 -14 344 37 75 120 134 225 160 72 18 259
17 328 -1z"/>
<path d="M6605 1088 c-3 -7 -4 -184 -3 -393 l3 -380 320 0 320 0 3 33 3 32
-285 0 -286 0 -2 358 -3 357 -33 3 c-20 2 -34 -2 -37 -10z"/>
<path d="M8350 705 l0 -395 35 0 35 0 0 395 0 395 -35 0 -35 0 0 -395z"/>
<path d="M9904 1068 c-9 -18 -88 -168 -174 -333 -87 -165 -172 -328 -189 -362
l-31 -63 38 0 38 0 54 105 55 105 265 0 265 0 55 -105 c55 -104 55 -105 93
-105 20 0 37 2 37 3 0 2 -92 179 -204 393 l-203 389 -41 3 c-37 3 -42 0 -58
-30z m171 -259 c61 -116 112 -215 113 -220 2 -5 -95 -9 -222 -9 -157 0 -226 3
-226 11 0 13 213 429 220 429 3 0 55 -95 115 -211z"/>
<path d="M11500 706 l0 -396 35 0 35 0 0 170 0 170 193 0 192 -1 125 -167
c125 -167 125 -167 168 -170 23 -2 42 -1 42 2 0 3 -58 80 -129 172 l-130 168
56 22 c68 28 91 48 114 99 36 78 19 187 -39 248 -52 55 -127 69 -409 74 l-253
6 0 -397z m562 297 c62 -28 83 -62 83 -135 -1 -72 -24 -106 -91 -132 -40 -15
-88 -19 -266 -23 l-218 -6 0 163 0 162 223 -4 c200 -3 227 -6 269 -25z"/>
<path d="M13400 705 l0 -395 35 0 35 0 0 395 0 395 -35 0 -35 0 0 -395z"/>
<path d="M14660 803 c0 -269 2 -302 19 -338 55 -118 194 -173 414 -162 142 6
223 33 284 94 68 67 74 101 71 424 l-3 274 -35 0 -35 0 -5 -295 c-4 -207 -9
-301 -17 -316 -42 -73 -148 -116 -288 -118 -164 -2 -273 41 -315 123 -19 38
-20 58 -20 326 l0 285 -35 0 -35 0 0 -297z"/>
<path d="M16635 1088 c-3 -7 -4 -184 -3 -393 l3 -380 37 -3 38 -3 2 330 3 330
210 -327 c208 -323 211 -327 244 -327 33 0 36 4 245 328 l211 328 3 -330 2
-331 35 0 35 0 0 395 0 395 -37 0 -38 0 -225 -354 c-127 -200 -229 -350 -234
-346 -5 5 -108 163 -230 352 -222 343 -222 343 -259 346 -24 2 -39 -1 -42 -10z"/>
<path d="M19187 1078 c-23 -37 -397 -756 -397 -763 0 -3 17 -5 38 -3 36 3 38
5 90 106 l53 102 267 -2 267 -3 53 -102 c51 -101 54 -103 87 -103 19 0 35 4
35 10 0 5 -91 183 -202 395 l-201 385 -38 0 c-29 0 -42 -6 -52 -22z m167 -275
c58 -111 106 -206 106 -212 0 -8 -72 -11 -225 -11 -124 0 -225 3 -225 6 0 18
225 433 231 426 4 -4 55 -98 113 -209z"/>
<path d="M20770 705 l0 -395 35 0 35 0 0 395 0 395 -35 0 -35 0 0 -395z"/>
</g>
</svg>